<?xml version="1.0" encoding="UTF-8" standalone="no"?>
<svg xmlns="http://www.w3.org/2000/svg" version="1.1" viewBox="0 0 48 48" height="80" width="80">
    <g transform="translate(-353.14286,-434.0763)">
        <path d="m 370.47983,481.78048 c -3.73113,-1.04807 -8.06838,-3.96895 -10.1404,-6.82894 -1.05863,-1.46121 -3.32746,-5.66498 -4.15778,-7.70368 -1.39985,-3.43706 -2.36841,-6.89954 -2.79388,-9.98776 -0.37376,-2.71293 -0.38374,-2.63838 0.42512,-3.17565 1.64157,-1.09036 3.73528,-1.47384 5.9532,-1.09037 l 0.72118,0.12469 0.0634,1.30553 c 0.14283,2.94316 0.28645,4.78534 0.48241,6.18788 0.30722,2.1988 1.02943,5.57735 1.54698,7.23694 0.50455,1.61788 1.92569,4.48828 3.06777,6.19622 2.36668,3.53931 5.47891,6.45755 8.17621,7.66658 l 0.75514,0.33848 -1.56421,10e-4 c -0.86032,9.6e-4 -2.00111,-0.12133 -2.5351,-0.27132 z m 10.18243,-0.19155 c 3.39831,-1.58134 6.98427,-5.46415 9.50505,-10.29189 1.17368,-2.24782 1.72714,-3.88944 2.37934,-7.05751 0.70813,-3.43973 0.86965,-4.87248 1.14094,-10.12005 l 0.0526,-1.01795 1.26107,-0.14433 c 2.26678,-0.25943 4.25936,0.2147 5.75097,1.36843 l 0.39061,0.30214 -0.10122,1.04469 c -0.14723,1.51958 -0.7715,4.84764 -1.20198,6.40788 -1.5363,5.56836 -4.69602,11.77092 -7.4836,14.6904 -0.96401,1.00963 -3.29816,2.75112 -4.61597,3.44393 -2.05902,1.0825 -5.07982,1.88789 -6.98076,1.86119 l -1.10999,-0.0156 1.01292,-0.47135 z m -6.04716,-1.03439 c -0.0198,-0.085 -0.42877,-0.38941 -0.90887,-0.67633 -1.67869,-1.00325 -4.15851,-3.23572 -5.98289,-5.38614 -3.51139,-4.13889 -6.00405,-12.04774 -6.06895,-19.2559 l -0.0204,-2.27085 0.7012,-0.0625 c 1.1375,-0.1013 2.31331,0.31123 4.23224,1.48486 2.07969,1.27194 1.86277,0.78498 1.96233,4.40536 0.13387,4.86807 0.78979,8.44672 2.28593,12.47184 0.8704,2.34165 2.48253,5.95253 3.37662,7.56305 0.42044,0.75733 0.76444,1.49042 0.76444,1.62909 0,0.27189 -0.28232,0.35244 -0.34161,0.0975 z m 4.73,-0.002 c -0.15268,-0.0586 0.0397,-0.52206 0.86434,-2.08229 1.81201,-3.4283 3.43182,-7.38799 4.24656,-10.38091 0.75731,-2.78191 1.11771,-5.33077 1.2335,-8.72351 0.0349,-1.02251 0.0886,-2.31546 0.11932,-2.87322 l 0.0559,-1.01411 1.26133,-0.80178 c 2.14447,-1.36315 2.78265,-1.62943 4.20097,-1.75287 l 1.32148,-0.11502 0,1.75654 c -0.001,5.62281 -1.00345,10.22521 -3.30972,15.20137 -1.87529,4.04621 -5.21514,7.96564 -8.41232,9.87213 -0.70216,0.4187 -1.30092,0.81252 -1.3306,0.87517 -0.0297,0.0627 -0.1423,0.08 -0.2503,0.0385 z m -3.27036,-1.01226 c -0.86096,-1.053 -2.15817,-3.53922 -2.82904,-5.42213 -1.13252,-3.17859 -1.30171,-6.45453 -0.44315,-8.58022 0.67898,-1.68103 2.03502,-2.0081 3.43039,-0.82737 0.88422,0.74821 0.84491,0.75313 2.33763,-0.29257 0.57478,-0.40265 0.88907,-0.50931 1.31588,-0.44656 0.99622,0.14645 1.84203,1.63791 2.10315,3.70857 0.3451,2.73663 -0.80066,6.86973 -2.8986,10.45606 -1.42112,2.42936 -1.96939,2.6846 -3.01626,1.40422 z m -5.39365,-11.3411 c -0.48109,-1.16557 -0.75319,-2.23021 -1.05138,-4.11375 -0.44814,-2.83072 -0.64233,-7.21864 -0.32783,-7.40778 0.24431,-0.14693 1.84731,2.02563 2.89269,3.9205 l 1.09005,1.97581 -0.32363,0.49069 c -1.14689,1.7389 -1.37451,2.15372 -1.57347,2.86759 -0.12207,0.43799 -0.25487,1.31154 -0.29513,1.94122 l -0.0732,1.14489 -0.33812,-0.81917 z m 12.54341,0.3671 c -0.038,-0.18149 -0.0696,-0.56707 -0.0702,-0.85686 -0.003,-1.36218 -0.5733,-2.75774 -1.93491,-4.73248 l -0.26387,-0.3827 1.07924,-1.96039 c 1.03404,-1.87829 2.28589,-3.60649 2.83665,-3.91607 l 0.25972,-0.14599 -0.0653,2.44213 c -0.10001,3.74341 -0.71139,7.48202 -1.52439,9.32168 -0.2105,0.47631 -0.25818,0.51102 -0.31695,0.23068 z m -7.21488,-5.78593 c -0.51854,-0.40255 -0.94331,-0.83164 -0.94392,-0.95353 -0.005,-0.98318 1.33244,-6.66499 1.83024,-7.77572 l 0.22125,-0.49366 0.22661,0.49366 c 0.55936,1.21854 1.87209,6.88344 1.79778,7.75807 -0.0227,0.26763 -0.29964,0.56143 -0.98603,1.0462 -0.52493,0.37074 -1.01037,0.6702 -1.07877,0.66547 -0.0684,-0.005 -0.54862,-0.33795 -1.06716,-0.74049 z m -2.50016,-2.33179 c -0.77476,-1.68905 -1.97772,-3.49284 -3.23168,-4.84578 l -0.95719,-1.03274 0.0639,-1.11848 c 0.14207,-2.48798 1.02998,-6.43521 1.90163,-8.45371 l 0.44883,-1.03937 0.50517,0.53483 c 1.4872,1.57456 3.42484,4.5439 3.99711,6.12537 l 0.32911,0.9095 -0.27038,0.97666 c -0.14871,0.53718 -0.46983,1.57137 -0.71361,2.2982 -0.62247,1.85592 -0.93704,3.21978 -1.21104,5.25059 l -0.23706,1.75696 -0.62475,-1.36203 z m 6.38461,-0.30757 c -0.19306,-1.70904 -0.71952,-3.84435 -1.69209,-6.86304 -0.524,-1.62641 -0.53185,-1.6744 -0.36853,-2.25252 0.38918,-1.3776 2.11958,-4.12628 3.93685,-6.25356 l 0.68383,-0.80049 0.39555,0.80126 c 0.46087,0.93355 1.26669,3.7061 1.59137,5.47534 0.12436,0.6777 0.28956,1.9197 0.3671,2.76002 l 0.14098,1.52784 -0.94727,1.02463 c -1.32901,1.43754 -2.08745,2.55303 -3.07113,4.51691 l -0.85175,1.70051 -0.18491,-1.6369 z m -13.08204,-7.39134 c -1.6868,-1.00991 -2.80996,-1.45256 -4.07235,-1.60497 l -0.94392,-0.11395 0.001,-1.00747 c 0.003,-2.40527 0.61413,-6.09757 1.53847,-9.301 l 0.45583,-1.57972 0.53939,0.0636 c 0.84802,0.0999 2.44665,0.75456 3.66498,1.50081 1.00255,0.61407 2.50159,1.84326 2.82179,2.31381 0.0859,0.12625 -0.0542,0.66039 -0.47298,1.8037 -0.67879,1.85295 -0.83469,2.46281 -1.48968,5.82739 -0.25973,1.33421 -0.51011,2.54096 -0.5564,2.68167 -0.0656,0.19951 -0.39289,0.071 -1.48655,-0.58382 z m 18.82771,-0.83849 c -0.78751,-4.03356 -1.1427,-5.50436 -1.69218,-7.00704 -0.3207,-0.87705 -0.55815,-1.71363 -0.52766,-1.85907 0.0789,-0.37634 1.68281,-1.68574 3.04924,-2.48931 1.14148,-0.67128 2.35335,-1.17063 3.43411,-1.41501 l 0.54501,-0.12324 0.60796,2.23464 c 0.90387,3.32231 1.3765,6.29771 1.3765,8.66587 0,1.1121 0.0419,1.07207 -1.33756,1.27964 -1.01291,0.15242 -2.50977,0.8002 -4.02251,1.7408 l -1.09894,0.68329 -0.33397,-1.71057 z m -9.44245,-4.31681 c -0.47466,-0.72096 -1.55669,-2.14114 -2.40452,-3.15595 l -1.5415,-1.84512 0.34792,-0.93551 c 0.65835,-1.77024 3.53799,-6.73146 4.35945,-7.51073 0.18844,-0.17876 0.3351,-0.0566 0.97089,0.80854 0.88444,1.20352 3.57808,6.09297 3.85305,6.99402 l 0.19147,0.62739 -1.53992,1.86567 c -0.84696,1.02612 -1.92295,2.45264 -2.39109,3.17004 -0.46814,0.7174 -0.88077,1.3017 -0.91695,1.29843 -0.0362,-0.003 -0.45414,-0.59582 -0.9288,-1.31678 z"
              fill="#ffffff"/>
    </g>
</svg>