<svg xmlns="http://www.w3.org/2000/svg" width="120" height="90" viewBox="0 0 1200 900">
    <path fill="#f5f5f5" d="M0 0h1200v900H0z"/>
    <path fill="#2196f3" d="M50 75h225v50H50z"/>
    <g fill-opacity=".392">
        <path d="M200 450h800v50H200zM300 550h600v50H300zM400 650h400v50H400z"/>
    </g>
    <g fill="#4caf50">
        <path d="M550 175h100v50H550zM425 175h100v50H425zM300 175h100v50H300zM175 175h100v50H175zM50 175h100v50H50z"/>
        <g>
            <path d="M1050 175h100v50h-100zM925 175h100v50H925zM800 175h100v50H800zM675 175h100v50H675zM550 175h100v50H550z"/>
        </g>
    </g>
    <path fill="#2196f3" fill-opacity=".325" d="M425 75h725v50H425z"/>
</svg>